<?xml version="1.0" encoding="utf-8"?>
<!-- Generator: Adobe Illustrator 17.1.0, SVG Export Plug-In . SVG Version: 6.00 Build 0)  -->
<!DOCTYPE svg PUBLIC "-//W3C//DTD SVG 1.1//EN" "http://www.w3.org/Graphics/SVG/1.1/DTD/svg11.dtd">
<svg version="1.1" id="twitter" xmlns="http://www.w3.org/2000/svg" xmlns:xlink="http://www.w3.org/1999/xlink" x="0px" y="0px"
	 viewBox="0 0 60 60" enable-background="new 0 0 60 60" xml:space="preserve">
<path d="M43.6,23.8c-0.5,0.5-1.1,1-1.8,1.4c0.1,0.2,0.1,0.5,0.1,0.8c0,2-0.4,4.1-1.2,6.2c-0.8,2.1-1.9,4-3.4,5.7
	C35.9,39.6,34,41,31.9,42s-4.7,1.6-7.5,1.6c-1.7,0-3.4-0.2-5-0.7c-1.6-0.5-3.1-1.2-4.4-2c0.3,0.1,0.8,0.1,1.5,0.1
	c2.9,0,5.4-0.9,7.7-2.6c-1.4-0.1-2.6-0.5-3.6-1.3c-1-0.8-1.8-1.9-2.2-3.1c0.2,0.1,0.4,0,0.6,0h0.6h0.8c0.2,0,0.5,0,0.8-0.1
	c-1.4-0.3-2.7-1-3.6-2.1c-1-1.1-1.5-2.4-1.5-3.8v-0.1c1,0.5,1.9,0.7,2.8,0.7c-0.9-0.6-1.5-1.3-2-2.2c-0.5-0.9-0.7-1.9-0.7-3
	c0-1,0.3-2,0.9-3c1.5,1.8,3.4,3.4,5.5,4.5c2.2,1.2,4.5,1.8,7.1,1.9c-0.1-0.3-0.1-0.8-0.1-1.5c0-1.7,0.6-3.2,1.8-4.3
	c1.2-1.2,2.7-1.8,4.4-1.8c1.8,0,3.3,0.6,4.4,1.9c1.4-0.2,2.7-0.8,4-1.6c-0.5,1.5-1.4,2.6-2.8,3.4c0.7-0.1,1.3-0.2,1.9-0.3
	c0.6-0.2,1.2-0.4,1.7-0.6C44.6,22.7,44.1,23.3,43.6,23.8z"/>
</svg>
